<svg width="24" height="24" viewBox="0 0 24 24" fill="none" xmlns="http://www.w3.org/2000/svg">
<mask id="mask0_4408_18399" style="mask-type:luminance" maskUnits="userSpaceOnUse" x="0" y="0" width="24" height="24">
<path d="M24 0H0V24H24V0Z" fill="white"/>
</mask>
<g mask="url(#mask0_4408_18399)">
<path d="M23.52 12.2728C23.52 11.4219 23.4437 10.6038 23.3018 9.81824H12V14.4601H18.4582C18.18 15.9601 17.3346 17.231 16.0637 18.0819V21.0928H19.9418C22.2109 19.0038 23.52 15.9273 23.52 12.2728Z" fill="#4285F4"/>
<path d="M12.001 24.0002C15.241 24.0002 17.9573 22.9256 19.9427 21.0929L16.0646 18.082C14.9901 18.802 13.6155 19.2274 12.001 19.2274C8.8755 19.2274 6.2301 17.1165 5.28642 14.2802H1.27734V17.3892C3.25194 21.3111 7.3101 24.0002 12.001 24.0002Z" fill="#34A853"/>
<path d="M5.2854 14.2802C5.0454 13.5602 4.90908 12.7911 4.90908 12.0002C4.90908 11.2092 5.0454 10.4402 5.2854 9.72016V6.61108H1.27632C0.463679 8.23108 0 10.0638 0 12.0002C0 13.9365 0.463679 15.7692 1.27632 17.3892L5.2854 14.2802Z" fill="#FBBC04"/>
<path d="M12.001 4.77276C13.7627 4.77276 15.3446 5.37816 16.5883 6.56724L20.0301 3.1254C17.9519 1.18908 15.2355 0 12.001 0C7.3101 0 3.25194 2.68908 1.27734 6.61092L5.28642 9.72C6.2301 6.88368 8.8755 4.77276 12.001 4.77276Z" fill="#E94235"/>
</g>
</svg>
